<?xml version="1.0" encoding="utf-8"?>
<!-- Generator: Adobe Illustrator 19.2.1, SVG Export Plug-In . SVG Version: 6.00 Build 0)  -->
<svg version="1.1" id="layer" xmlns="http://www.w3.org/2000/svg" xmlns:xlink="http://www.w3.org/1999/xlink" x="0px" y="0px"
	 viewBox="0 0 652 652" style="enable-background:new 0 0 652 652;" xml:space="preserve">
<style type="text/css">
	.st0{fill:url(#SVGID_1_);}
	.st1{fill:url(#SVGID_2_);}
	.st2{fill:url(#SVGID_3_);}
	.st3{fill:url(#SVGID_4_);}
	.st4{fill:url(#SVGID_5_);}
	.st5{fill:url(#SVGID_6_);}
	.st6{fill:url(#SVGID_7_);}
	.st7{fill:url(#SVGID_8_);}
	.st8{fill:url(#SVGID_9_);}
	.st9{fill:url(#SVGID_10_);}
</style>
<linearGradient id="SVGID_1_" gradientUnits="userSpaceOnUse" x1="792.7891" y1="218.4829" x2="453.0028" y2="-121.3091" gradientTransform="matrix(1 0 0 -1 -449.17 250.29)">
	<stop  offset="0" style="stop-color:#009FCD"/>
	<stop  offset="0.13" style="stop-color:#00B3B8"/>
	<stop  offset="0.34" style="stop-color:#00CB9D"/>
	<stop  offset="0.55" style="stop-color:#00DC8A"/>
	<stop  offset="0.77" style="stop-color:#00E77F"/>
	<stop  offset="1" style="stop-color:#00EA7B"/>
</linearGradient>
<path class="st0" d="M82.1,292.2c5.5,3.1,10.1,7.7,13.1,13.2c3.2,5.7,4.8,12.3,4.8,19.8c0,7.5-1.6,14.1-4.8,19.8
	c-3,5.5-7.6,10.1-13.1,13.2c-5.7,3.2-12.1,4.8-18.5,4.7c-9.3,0-16.7-2.9-22-8.8V388H20.3v-99.5h20.3v8.4c5.3-6.3,12.9-9.5,23-9.5
	C70,287.4,76.4,289,82.1,292.2z M73.2,339.9c3.5-3.7,5.2-8.6,5.2-14.7c0-6.2-1.7-11.1-5.2-14.7c-3.5-3.7-8-5.5-13.4-5.5
	c-5.4,0-9.9,1.8-13.4,5.5c-3.5,3.7-5.2,8.6-5.2,14.7c0,6.2,1.8,11.1,5.2,14.7c3.5,3.7,8,5.5,13.4,5.5S69.8,343.6,73.2,339.9z"/>
<linearGradient id="SVGID_2_" gradientUnits="userSpaceOnUse" x1="842.0405" y1="169.2323" x2="502.2543" y2="-170.5598" gradientTransform="matrix(1 0 0 -1 -449.17 250.29)">
	<stop  offset="0" style="stop-color:#009FCD"/>
	<stop  offset="0.13" style="stop-color:#00B3B8"/>
	<stop  offset="0.34" style="stop-color:#00CB9D"/>
	<stop  offset="0.55" style="stop-color:#00DC8A"/>
	<stop  offset="0.77" style="stop-color:#00E77F"/>
	<stop  offset="1" style="stop-color:#00EA7B"/>
</linearGradient>
<path class="st1" d="M128.2,358c-5.9-3-10.9-7.7-14.4-13.4c-3.4-5.7-5.2-12.2-5.2-19.4s1.7-13.7,5.2-19.4
	c3.4-5.7,8.4-10.3,14.3-13.4c6.1-3.2,13-4.8,20.7-4.8c7.7,0,14.6,1.6,20.7,4.8c5.9,3.1,10.8,7.7,14.3,13.4
	c3.4,5.7,5.2,12.2,5.2,19.4s-1.7,13.7-5.2,19.4c-3.4,5.7-8.4,10.3-14.3,13.4c-6.1,3.2-13,4.8-20.7,4.8
	C141.2,362.8,134.3,361.2,128.2,358z M162.2,339.9c3.5-3.7,5.2-8.6,5.2-14.7c0-6.2-1.7-11.1-5.2-14.7c-3.5-3.7-8-5.5-13.4-5.5
	c-5.4,0-9.9,1.8-13.5,5.5c-3.5,3.7-5.3,8.6-5.3,14.7c0,6.2,1.8,11.1,5.3,14.7c3.5,3.7,8,5.5,13.5,5.5
	C154.3,345.4,158.8,343.6,162.2,339.9L162.2,339.9z"/>
<linearGradient id="SVGID_3_" gradientUnits="userSpaceOnUse" x1="872.801" y1="138.4723" x2="533.0148" y2="-201.3197" gradientTransform="matrix(1 0 0 -1 -449.17 250.29)">
	<stop  offset="0" style="stop-color:#009FCD"/>
	<stop  offset="0.13" style="stop-color:#00B3B8"/>
	<stop  offset="0.34" style="stop-color:#00CB9D"/>
	<stop  offset="0.55" style="stop-color:#00DC8A"/>
	<stop  offset="0.77" style="stop-color:#00E77F"/>
	<stop  offset="1" style="stop-color:#00EA7B"/>
</linearGradient>
<path class="st2" d="M230.2,290.2c4.3-1.8,9.3-2.7,14.9-2.7v19.6c-2.4-0.2-3.9-0.3-4.8-0.3c-6.1,0-10.8,1.7-14.3,5.1
	c-3.4,3.4-5.2,8.5-5.2,15.3v34.5h-21.2v-73.1H220v9.6C222.6,294.6,226.1,291.9,230.2,290.2z"/>
<linearGradient id="SVGID_4_" gradientUnits="userSpaceOnUse" x1="908.7188" y1="102.5551" x2="568.9326" y2="-237.2369" gradientTransform="matrix(1 0 0 -1 -449.17 250.29)">
	<stop  offset="0" style="stop-color:#009FCD"/>
	<stop  offset="0.13" style="stop-color:#00B3B8"/>
	<stop  offset="0.34" style="stop-color:#00CB9D"/>
	<stop  offset="0.55" style="stop-color:#00DC8A"/>
	<stop  offset="0.77" style="stop-color:#00E77F"/>
	<stop  offset="1" style="stop-color:#00EA7B"/>
</linearGradient>
<path class="st3" d="M314.3,358.2c-2.3,1.6-4.9,2.8-7.7,3.5c-3.1,0.8-6.4,1.2-9.6,1.2c-8.7,0-15.4-2.2-20.2-6.7s-7.1-11-7.1-19.6
	v-30h-11.3v-16.3h11.3v-17.8h21.2v17.8h18.2v16.3h-18.2v29.8c0,3.1,0.8,5.5,2.4,7.1c1.6,1.7,3.8,2.5,6.7,2.5
	c3.1,0.1,6.1-0.9,8.6-2.7L314.3,358.2z"/>
<linearGradient id="SVGID_5_" gradientUnits="userSpaceOnUse" x1="935.5462" y1="75.7282" x2="595.7599" y2="-264.0638" gradientTransform="matrix(1 0 0 -1 -449.17 250.29)">
	<stop  offset="0" style="stop-color:#009FCD"/>
	<stop  offset="0.13" style="stop-color:#00B3B8"/>
	<stop  offset="0.34" style="stop-color:#00CB9D"/>
	<stop  offset="0.55" style="stop-color:#00DC8A"/>
	<stop  offset="0.77" style="stop-color:#00E77F"/>
	<stop  offset="1" style="stop-color:#00EA7B"/>
</linearGradient>
<path class="st4" d="M352.9,290.2h18.8v16.3h-18.2v55.2h-21.2v-55.2H321v-16.3h11.3v-3.3c0-8.3,2.5-15,7.4-19.8
	c4.9-4.9,11.9-7.3,20.9-7.3c3,0,6.1,0.3,9,1c2.5,0.5,4.9,1.5,7.1,2.9l-5.6,15.4c-2.5-1.7-5.5-2.6-8.6-2.6c-6.4,0-9.6,3.5-9.6,10.6
	L352.9,290.2z"/>
<linearGradient id="SVGID_6_" gradientUnits="userSpaceOnUse" x1="975.665" y1="35.6101" x2="635.8787" y2="-304.1819" gradientTransform="matrix(1 0 0 -1 -449.17 250.29)">
	<stop  offset="0" style="stop-color:#009FCD"/>
	<stop  offset="0.13" style="stop-color:#00B3B8"/>
	<stop  offset="0.34" style="stop-color:#00CB9D"/>
	<stop  offset="0.55" style="stop-color:#00DC8A"/>
	<stop  offset="0.77" style="stop-color:#00E77F"/>
	<stop  offset="1" style="stop-color:#00EA7B"/>
</linearGradient>
<path class="st5" d="M395.4,358c-5.9-3-10.9-7.7-14.3-13.4c-3.4-5.7-5.2-12.2-5.2-19.4s1.7-13.7,5.2-19.4
	c3.4-5.7,8.4-10.3,14.3-13.4c6.1-3.2,13-4.8,20.7-4.8s14.6,1.6,20.7,4.8c5.9,3.1,10.8,7.7,14.3,13.4c3.4,5.7,5.2,12.2,5.2,19.4
	s-1.7,13.7-5.2,19.4c-3.4,5.7-8.4,10.3-14.3,13.4c-6.1,3.2-13,4.8-20.7,4.8C408.4,362.8,401.5,361.2,395.4,358z M429.5,339.9
	c3.5-3.7,5.2-8.6,5.2-14.7c0-6.2-1.7-11.1-5.2-14.7c-3.5-3.7-8-5.5-13.4-5.5c-5.4,0-9.9,1.8-13.5,5.5c-3.5,3.7-5.3,8.6-5.3,14.7
	c0,6.2,1.8,11.1,5.3,14.7c3.5,3.7,8,5.5,13.5,5.5C421.5,345.4,426,343.6,429.5,339.9L429.5,339.9z"/>
<linearGradient id="SVGID_7_" gradientUnits="userSpaceOnUse" x1="1001.1815" y1="10.094" x2="661.3952" y2="-329.698" gradientTransform="matrix(1 0 0 -1 -449.17 250.29)">
	<stop  offset="0" style="stop-color:#009FCD"/>
	<stop  offset="0.13" style="stop-color:#00B3B8"/>
	<stop  offset="0.34" style="stop-color:#00CB9D"/>
	<stop  offset="0.55" style="stop-color:#00DC8A"/>
	<stop  offset="0.77" style="stop-color:#00E77F"/>
	<stop  offset="1" style="stop-color:#00EA7B"/>
</linearGradient>
<path class="st6" d="M470.3,260.8h21.2v100.9h-21.2V260.8z"/>
<linearGradient id="SVGID_8_" gradientUnits="userSpaceOnUse" x1="1021.2268" y1="-9.951" x2="681.4406" y2="-349.743" gradientTransform="matrix(1 0 0 -1 -449.17 250.29)">
	<stop  offset="0" style="stop-color:#009FCD"/>
	<stop  offset="0.13" style="stop-color:#00B3B8"/>
	<stop  offset="0.34" style="stop-color:#00CB9D"/>
	<stop  offset="0.55" style="stop-color:#00DC8A"/>
	<stop  offset="0.77" style="stop-color:#00E77F"/>
	<stop  offset="1" style="stop-color:#00EA7B"/>
</linearGradient>
<path class="st7" d="M512.3,275c-4.7-4.3-4.9-11.6-0.6-16.3c0.2-0.2,0.4-0.4,0.6-0.6c2.4-2.3,5.6-3.4,9.5-3.4c3.9,0,7.1,1.1,9.5,3.3
	c2.4,2,3.7,5,3.7,8.2c0.1,3.3-1.2,6.5-3.7,8.8c-2.4,2.3-5.6,3.5-9.5,3.5C518,278.4,514.8,277.2,512.3,275z M511.2,288.6h21.2v73.1
	h-21.2V288.6z"/>
<linearGradient id="SVGID_9_" gradientUnits="userSpaceOnUse" x1="1057.4546" y1="-46.1875" x2="717.6683" y2="-385.9795" gradientTransform="matrix(1 0 0 -1 -449.17 250.29)">
	<stop  offset="0" style="stop-color:#009FCD"/>
	<stop  offset="0.13" style="stop-color:#00B3B8"/>
	<stop  offset="0.34" style="stop-color:#00CB9D"/>
	<stop  offset="0.55" style="stop-color:#00DC8A"/>
	<stop  offset="0.77" style="stop-color:#00E77F"/>
	<stop  offset="1" style="stop-color:#00EA7B"/>
</linearGradient>
<path class="st8" d="M615.3,305c-3.4-5.7-8.3-10.2-14.1-13.2c-6.1-3.1-13.1-4.7-21.1-4.7c-8,0-15,1.6-21.1,4.7
	c-5.9,2.9-10.8,7.5-14.1,13.2c-3.3,5.7-5,12.2-5,19.6c0,7.5,1.7,14.1,5,19.8c3.3,5.7,8.2,10.2,14.1,13.2c6.1,3.1,13.1,4.7,21.1,4.7
	c8,0,15-1.6,21.1-4.7c5.9-2.9,10.8-7.5,14.1-13.2c3.4-5.7,5-12.3,5-19.8C620.3,317.2,618.6,310.6,615.3,305z M601.8,329.3h-16.2
	v16.2h-11v-16.2h-16.3v-11.1h16.3V302h11v16.3h16.2V329.3z"/>
<linearGradient id="SVGID_10_" gradientUnits="userSpaceOnUse" x1="646.4035" y1="344.8269" x2="306.6172" y2="5.0348" gradientTransform="matrix(1 0 0 -1 0 652)">
	<stop  offset="0" style="stop-color:#009FCD"/>
	<stop  offset="0.13" style="stop-color:#00B3B8"/>
	<stop  offset="0.34" style="stop-color:#00CB9D"/>
	<stop  offset="0.55" style="stop-color:#00DC8A"/>
	<stop  offset="0.77" style="stop-color:#00E77F"/>
	<stop  offset="1" style="stop-color:#00EA7B"/>
</linearGradient>
<rect x="543.3" y="367.5" class="st9" width="73.7" height="12"/>
</svg>
